<svg xmlns="http://www.w3.org/2000/svg" width="21.402" height="31.13" viewBox="0 0 21.402 31.13">
  <g id="icon_pass" transform="translate(-96.43 -81.666)" opacity="0.45">
    <g id="Group_5" data-name="Group 5" transform="translate(96.43 81.666)">
      <path id="Path_14" data-name="Path 14" d="M114.913,95.285V89.448a7.782,7.782,0,0,0-15.565,0v5.837A2.922,2.922,0,0,0,96.43,98.2v11.673a2.922,2.922,0,0,0,2.918,2.919h15.565a2.922,2.922,0,0,0,2.919-2.919V98.2A2.922,2.922,0,0,0,114.913,95.285Zm-13.619-5.837a5.837,5.837,0,0,1,11.674,0v5.837H101.294Zm14.592,20.428a.974.974,0,0,1-.973.973H99.348a.974.974,0,0,1-.972-.973V98.2a.974.974,0,0,1,.972-.973h15.565a.974.974,0,0,1,.973.973Zm-7.782-6.54v-2.215a.973.973,0,0,0-1.946,0v2.215a1.946,1.946,0,1,0,1.946,0Z" transform="translate(-96.43 -81.666)" fill="#3f3f3f"/>
    </g>
  </g>
</svg>
