<svg xmlns="http://www.w3.org/2000/svg" width="25" height="25" viewBox="0 0 38.787 39.58">
  <g id="Group_10" data-name="Group 10" transform="translate(-205.02 -326.43)">
    <path id="Path_15" data-name="Path 15" d="M218.341,327.515a19.8,19.8,0,0,0,1.354,37.825,21.151,21.151,0,0,0,10.124.109,17.461,17.461,0,0,0,13.11-12.431,23.253,23.253,0,0,0,.5-10.506q-9.311,0-18.623,0c0,2.575,0,5.15,0,7.724q5.393,0,10.785,0a9.3,9.3,0,0,1-3.962,6.113,11.312,11.312,0,0,1-4.357,1.721,12.914,12.914,0,0,1-4.723-.015,11.624,11.624,0,0,1-4.406-1.9,12.3,12.3,0,0,1-4.536-6.077,11.987,11.987,0,0,1,0-7.707,12.279,12.279,0,0,1,2.872-4.666,11.627,11.627,0,0,1,11.721-3.046,10.726,10.726,0,0,1,4.267,2.507q1.825-1.814,3.641-3.638c.637-.652,1.306-1.276,1.923-1.946a19.156,19.156,0,0,0-6.369-3.946A20.012,20.012,0,0,0,218.341,327.515Z" transform="translate(0)" fill="#fff"/>
    <g id="Group_6" data-name="Group 6" transform="translate(207.129 326.43)">
      <path id="Path_16" data-name="Path 16" d="M226.305,327.515a20.012,20.012,0,0,1,13.331.117A19.156,19.156,0,0,1,246,331.578c-.617.67-1.286,1.294-1.923,1.946q-1.822,1.818-3.641,3.638a10.726,10.726,0,0,0-4.267-2.507,11.627,11.627,0,0,0-11.721,3.046,12.279,12.279,0,0,0-2.872,4.666q-3.243-2.516-6.486-5.032A19.877,19.877,0,0,1,226.305,327.515Z" transform="translate(-215.094 -326.43)" fill="#e22b26"/>
    </g>
    <g id="Group_7" data-name="Group 7" transform="translate(205.02 337.336)">
      <path id="Path_17" data-name="Path 17" d="M205.41,383.488a19.693,19.693,0,0,1,1.72-4.974q3.244,2.515,6.486,5.032a11.987,11.987,0,0,0,0,7.707q-3.242,2.516-6.484,5.032A19.813,19.813,0,0,1,205.41,383.488Z" transform="translate(-205.02 -378.514)" fill="#fdac00"/>
    </g>
    <g id="Group_8" data-name="Group 8" transform="translate(224.809 342.51)">
      <path id="Path_18" data-name="Path 18" d="M299.53,403.229q9.312,0,18.623,0a23.253,23.253,0,0,1-.5,10.506,17.973,17.973,0,0,1-5.007,8.216c-2.093-1.632-4.2-3.254-6.288-4.887a9.3,9.3,0,0,0,3.962-6.113q-5.391,0-10.785,0C299.527,408.379,299.531,405.8,299.53,403.229Z" transform="translate(-299.529 -403.228)" fill="#356bb3"/>
    </g>
    <g id="Group_9" data-name="Group 9" transform="translate(207.127 350.074)">
      <path id="Path_19" data-name="Path 19" d="M215.083,444.384q3.245-2.513,6.484-5.032a12.3,12.3,0,0,0,4.536,6.077,11.624,11.624,0,0,0,4.406,1.9,12.915,12.915,0,0,0,4.723.015,11.312,11.312,0,0,0,4.357-1.721c2.093,1.633,4.2,3.255,6.288,4.887a17.874,17.874,0,0,1-8.1,4.215,21.151,21.151,0,0,1-10.124-.109,19.7,19.7,0,0,1-7.191-3.626A19.939,19.939,0,0,1,215.083,444.384Z" transform="translate(-215.083 -439.352)" fill="#3e993d"/>
    </g>
  </g>
</svg>
